<?xml version="1.0" standalone="no"?>
<!DOCTYPE svg PUBLIC "-//W3C//DTD SVG 20010904//EN"
 "http://www.w3.org/TR/2001/REC-SVG-20010904/DTD/svg10.dtd">
<svg version="1.0" xmlns="http://www.w3.org/2000/svg"
 width="457.000000pt" height="433.000000pt" viewBox="0 0 457.000000 433.000000"
 preserveAspectRatio="xMidYMid meet">

<g transform="translate(0.000000,433.000000) scale(0.100000,-0.100000)"
fill="yellow" stroke="none">
<path d="M0 2165 l0 -2165 2285 0 2285 0 0 2165 0 2165 -2285 0 -2285 0 0
-2165z m2410 1795 l0 -120 120 0 120 0 0 -240 0 -240 120 0 120 0 0 -240 0
-240 120 0 120 0 0 -120 0 -120 600 0 600 0 0 -120 0 -120 -120 0 -120 0 0
-120 0 -120 -120 0 -120 0 0 -120 0 -120 -120 0 -120 0 0 -120 0 -120 -120 0
-120 0 0 -240 0 -240 120 0 120 0 0 -240 0 -240 120 0 120 0 0 -240 0 -240
-240 0 -240 0 0 120 0 120 -120 0 -120 0 0 120 0 120 -240 0 -240 0 0 120 0
120 -360 0 -360 0 0 -120 0 -120 -240 0 -240 0 0 -120 0 -120 -120 0 -120 0 0
-120 0 -120 -240 0 -240 0 0 240 0 240 120 0 120 0 0 240 0 240 120 0 120 0 0
240 0 240 -120 0 -120 0 0 120 0 120 -120 0 -120 0 0 120 0 120 -120 0 -120 0
0 120 0 120 -120 0 -120 0 0 120 0 120 600 0 600 0 0 120 0 120 120 0 120 0 0
240 0 240 120 0 120 0 0 240 0 240 120 0 120 0 0 120 0 120 120 0 120 0 0
-120z"/>
</g>
</svg>
